<svg version="1.1" id="Layer_1" xmlns="http://www.w3.org/2000/svg" x="0" y="0" viewBox="0 0 109 30" xml:space="preserve" enable-background="new 0 0 109 30"><style type="text/css">.st0{fill:#fff}.st1{filter:url(#Adobe_OpacityMaskFilter)}.st2{mask:url(#mask-2_1_);fill:#fff}.st3{filter:url(#Adobe_OpacityMaskFilter_1_)}.st4{mask:url(#mask-4_1_);fill:#fff}</style><g id="Wireframes-4.0"><g id="Desktop-HD" transform="translate(-61 -27)"><g id="nav" transform="translate(61 27)"><g id="Upstox-logo-blue"><g id="Page-1"><path id="Fill-1" class="st0" d="M9.9 25.9c-3.6-.2-6.4-3.3-6.4-7v-5.7c0-.6.5-1.1 1.1-1.1.6 0 1.1.5 1.1 1.1V19c0 2.4 1.8 4.5 4.2 4.8 2.8.3 5.1-1.9 5.1-4.6V6.7c0-.6.5-1.1 1.1-1.1.6 0 1.1.5 1.1 1.1v12.4c-.2 3.9-3.4 7-7.3 6.8"/><g id="Group-5" transform="translate(0 .017)"><g id="Fill-3-Clipped"><defs><filter id="Adobe_OpacityMaskFilter" filterUnits="userSpaceOnUse" x="0" y=".6" width="20.5" height="28.8"><feColorMatrix type="matrix" values="1 0 0 0 0 0 1 0 0 0 0 0 1 0 0 0 0 0 1 0"/></filter></defs><mask maskUnits="userSpaceOnUse" x="0" y=".6" width="20.5" height="28.8" id="mask-2_1_"><g class="st1"><path id="path-1_2_" class="st0" d="M20.5 29.4H0V.6h20.5z"/></g></mask><path id="Fill-3" class="st2" d="M18.4 1.6v17.2c0 4.4-3.4 8.2-7.8 8.4-4.6.2-8.5-3.6-8.5-8.2v-6.2c0-1.3 1-2.2 2.3-2.2 1.3 0 2.3 1 2.3 2.3v5.6c0 2 1.7 3.6 3.7 3.5 1.9-.1 3.2-1.8 3.2-3.6v-8.1c0-.6-.5-1.1-1.1-1.1s-1.1.5-1.1 1.1v8.1c0 .7-.4 1.3-1.1 1.4-.9.2-1.6-.5-1.6-1.3v-5.7c0-2.4-2-4.4-4.4-4.4-2.3.1-4.3 2-4.3 4.5v6.2c0 5.6 4.5 10.2 10.1 10.3 5.7.1 10.4-4.8 10.4-10.6V1.6c0-.6-.5-1.1-1.1-1.1s-1 .6-1 1.1"/></g></g><path id="Fill-6" class="st0" d="M36.8 17.4c0 2.2 1.7 3.7 3.6 3.7 2.3 0 4.4-1.9 4.4-4.4v-5.4c0-.5.3-.8.8-.8s.9.3.9.8v10.5c0 1.1-1.7 1.1-1.7 0v-1.5c-.8 1.7-2.6 2.5-4.5 2.5-2.7 0-5.3-1.9-5.3-5.3v-6.2c0-.5.3-.8.8-.8s.9.3.9.8v6.1z"/><path id="Fill-8" class="st0" d="M51.8 15.6v1.9c0 2.1 1.6 3.5 3.7 3.6 1.7 0 3.3-.9 4-2.5.2-.5.3-1.1.4-1.7 0-1.5-.5-2.9-1.7-4-.7-.5-1.5-.8-2.4-.9-2.2-.1-4 1.3-4 3.6m3.8 7.1c-1.6 0-3.1-.6-3.8-1.9v5c0 1.1-1.7 1.1-1.7 0V11.3c0-.5.3-.8.9-.8.5 0 .8.3.8.8v1.1c.8-1.5 2.4-2.1 3.8-2.1.7 0 1.5.1 2.2.4 2.5 1.1 3.8 3.4 3.8 6.1-.1 3.4-2.5 5.9-6 5.9"/><path id="Fill-10" class="st0" d="M65.3 19.5c.2 1.1 2.1 1.6 3.8 1.6 1.1 0 3.6-.5 3.6-2.1 0-1.5-1.8-1.6-3.7-1.7-2.5-.2-5.2-.4-5.2-3.3 0-2.5 2.8-3.6 5.1-3.6 1.8 0 4.3.3 5.1 2.4.3 1.1-1.3 1.5-1.6.6-.5-1.4-2.5-1.5-3.5-1.5-1.4 0-3.4.6-3.4 2 0 1.5 1.7 1.5 3.6 1.6 2.6.2 5.3.5 5.3 3.4 0 3-3.4 3.7-5.3 3.7s-4.9-.5-5.4-2.8c-.3-1 1.4-1.5 1.6-.3"/><path id="Fill-12" class="st0" d="M82.2 10.5c1 0 1 1.5 0 1.5h-2.5v6.3c0 1.3.2 2.7 1.8 2.7.4 0 .9-.1 1.1-.3 1-.6 1.7.8.7 1.4-.6.3-1.2.4-1.8.4-2.8 0-3.5-2.1-3.5-4.3v-6.3h-1.5c-1.1 0-1-1.5 0-1.5H78V7.7c0-1.1 1.7-1.1 1.7 0v2.7h2.5z"/><path id="Fill-14" class="st0" d="M90.9 11.9c-.4 0-.9.1-1.2.2-2 .5-3.1 2.3-3.1 4.5 0 1.1.3 2.2 1 3 .8 1 2.1 1.5 3.3 1.5 1.3 0 2.5-.6 3.4-1.5.7-.8 1-1.9 1-2.9 0-2.1-1.1-4-3.1-4.5-.4-.3-.8-.3-1.3-.3m-4.6 8.6c-1-1.2-1.5-2.7-1.4-4.5.2-2.6 1.7-4.8 4.3-5.5.6-.2 1.2-.2 1.8-.2.6 0 1.1 0 1.7.2 2.5.7 4.1 2.9 4.3 5.5.1 1.8-.4 3.3-1.4 4.5-1.1 1.4-2.8 2.1-4.7 2.1-1.8 0-3.5-.7-4.6-2.1"/><path id="Fill-16" class="st0" d="M105.3 15.6l3.2-3.9c.2-.2.2-.4.2-.7 0-.2-.1-.5-.3-.6-.2-.1-.4-.2-.6-.2-.3 0-.5.1-.7.3l-3.1 3.7 1.3 1.4z"/><path id="Fill-18" class="st0" d="M101.7 15.7l1.2-1.4-3.2-3.7c-.3-.4-.9-.4-1.3-.1-.2.2-.3.4-.3.6 0 .2.1.5.2.7l3.4 3.9z"/><g id="Group-22" transform="translate(97.812 14.417)"><g id="Fill-20-Clipped"><defs><filter id="Adobe_OpacityMaskFilter_1_" filterUnits="userSpaceOnUse" x=".6" y=".6" width="10.6" height="7.4"><feColorMatrix type="matrix" values="1 0 0 0 0 0 1 0 0 0 0 0 1 0 0 0 0 0 1 0"/></filter></defs><mask maskUnits="userSpaceOnUse" x=".6" y=".6" width="10.6" height="7.4" id="mask-4_1_"><g class="st3"><path id="path-3_2_" class="st0" d="M11.1 8V.6H.6V8z"/></g></mask><path id="Fill-20" class="st4" d="M10.9 6.5L5.7.6l-5 6c-.1.2-.2.4-.1.6 0 .2.1.4.3.6.1.1.3.2.5.2.3 0 .5-.1.7-.3l3.7-4.5 3.9 4.5c.3.3.8.3 1.2 0 .3-.3.3-.8 0-1.2"/></g></g></g></g></g></g></g></svg>